# xmcd CD database file
#
# Track frame offsets:
#	150
#	12600
#	22834
#	34389
#	47124
#	56177
#	66119
#	78638
#	90010
#	99255
#	110333
#	121605
#	131970
#	142068
#	153981
#	161811
#	172783
#	184523
#	195363
#	205483
#
# Disc length: 2849 seconds
#
# Revision: 0
# Processed by: cddbd v1.5.2PL0 Copyright (c) Steve Scherf et al.
# Submitted via: CDex 1.51
#
DISCID=090b1f14
DTITLE=Johnny Cash - Legends Johnny Cash
DYEAR=2010
DGENRE=Country
TTITLE0=I Walk The Line
TTITLE1=Get Rhythm
TTITLE2=Big River
TTITLE3=Folsom Prison Blues
TTITLE4=Katy Too
TTITLE5=Rock Island Line
TTITLE6=The Next in Line
TTITLE7=Mean-Eyed Cat
TTITLE8=Blue Train
TTITLE9=Cry Cry Cry
TTITLE10=Oh Lonesome Me
TTITLE11=There You Go
TTITLE12=Hey Porter
TTITLE13=Thanks A Lot
TTITLE14=Hey Good Lookin'
TTITLE15=Belshazzar
TTITLE16=So Doggone Lonesome
TTITLE17=Train of Love
TTITLE18=Ballad of A Teenage Queen
TTITLE19=Guess Things Happen That Way
EXTD=YEAR: 2010
EXTT0=
EXTT1=
EXTT2=
EXTT3=
EXTT4=
EXTT5=
EXTT6=
EXTT7=
EXTT8=
EXTT9=
EXTT10=
EXTT11=
EXTT12=
EXTT13=
EXTT14=
EXTT15=
EXTT16=
EXTT17=
EXTT18=
EXTT19=
PLAYORDER=
